<mxfile host="app.diagrams.net" modified="2024-05-11T04:48:56.138Z" agent="Mozilla/5.0 (Windows NT 10.0; Win64; x64; rv:109.0) Gecko/20100101 Firefox/115.0" etag="6BgZszpK8n4qKXrOyPgv" version="24.4.0" type="github">
  <diagram name="第 1 页" id="zkHWgEaNv6hnexCjSnFE">
    <mxGraphModel dx="4200" dy="2152" grid="1" gridSize="10" guides="1" tooltips="1" connect="1" arrows="1" fold="1" page="1" pageScale="1" pageWidth="827" pageHeight="1169" math="0" shadow="0">
      <root>
        <mxCell id="0" />
        <mxCell id="1" parent="0" />
        <mxCell id="4ZO73A1Ub5EUPTTGqCr5-2" value="" style="ellipse;whiteSpace=wrap;html=1;aspect=fixed;opacity=50;" parent="1" vertex="1">
          <mxGeometry x="160" y="140" width="270" height="270" as="geometry" />
        </mxCell>
        <mxCell id="4ZO73A1Ub5EUPTTGqCr5-3" value="" style="ellipse;whiteSpace=wrap;html=1;aspect=fixed;opacity=50;" parent="1" vertex="1">
          <mxGeometry x="160" y="140" width="270" height="270" as="geometry" />
        </mxCell>
        <mxCell id="4ZO73A1Ub5EUPTTGqCr5-4" value="" style="endArrow=none;html=1;rounded=0;entryX=0.5;entryY=0;entryDx=0;entryDy=0;exitX=0.5;exitY=1;exitDx=0;exitDy=0;" parent="1" source="4ZO73A1Ub5EUPTTGqCr5-3" target="4ZO73A1Ub5EUPTTGqCr5-3" edge="1">
          <mxGeometry width="50" height="50" relative="1" as="geometry">
            <mxPoint x="410" y="300" as="sourcePoint" />
            <mxPoint x="460" y="250" as="targetPoint" />
          </mxGeometry>
        </mxCell>
        <mxCell id="4ZO73A1Ub5EUPTTGqCr5-5" value="" style="endArrow=none;html=1;rounded=0;exitX=0;exitY=0.5;exitDx=0;exitDy=0;entryX=1;entryY=0.5;entryDx=0;entryDy=0;" parent="1" source="4ZO73A1Ub5EUPTTGqCr5-3" target="4ZO73A1Ub5EUPTTGqCr5-3" edge="1">
          <mxGeometry width="50" height="50" relative="1" as="geometry">
            <mxPoint x="190" y="310" as="sourcePoint" />
            <mxPoint x="240" y="260" as="targetPoint" />
          </mxGeometry>
        </mxCell>
        <mxCell id="4ZO73A1Ub5EUPTTGqCr5-6" value="" style="ellipse;whiteSpace=wrap;html=1;aspect=fixed;opacity=50;rotation=30;" parent="1" vertex="1">
          <mxGeometry x="160" y="140" width="270" height="270" as="geometry" />
        </mxCell>
        <mxCell id="4ZO73A1Ub5EUPTTGqCr5-7" value="" style="endArrow=none;html=1;rounded=0;entryX=0.5;entryY=0;entryDx=0;entryDy=0;exitX=0.5;exitY=1;exitDx=0;exitDy=0;" parent="1" source="4ZO73A1Ub5EUPTTGqCr5-6" target="4ZO73A1Ub5EUPTTGqCr5-6" edge="1">
          <mxGeometry width="50" height="50" relative="1" as="geometry">
            <mxPoint x="410" y="300" as="sourcePoint" />
            <mxPoint x="460" y="250" as="targetPoint" />
          </mxGeometry>
        </mxCell>
        <mxCell id="4ZO73A1Ub5EUPTTGqCr5-9" value="" style="endArrow=none;html=1;rounded=0;exitX=0;exitY=0.5;exitDx=0;exitDy=0;entryX=1;entryY=0.5;entryDx=0;entryDy=0;" parent="1" source="4ZO73A1Ub5EUPTTGqCr5-6" target="4ZO73A1Ub5EUPTTGqCr5-6" edge="1">
          <mxGeometry width="50" height="50" relative="1" as="geometry">
            <mxPoint x="410" y="300" as="sourcePoint" />
            <mxPoint x="460" y="250" as="targetPoint" />
          </mxGeometry>
        </mxCell>
        <mxCell id="4ZO73A1Ub5EUPTTGqCr5-11" value="" style="ellipse;whiteSpace=wrap;html=1;aspect=fixed;opacity=0;rotation=330;" parent="1" vertex="1">
          <mxGeometry x="160" y="140" width="270" height="270" as="geometry" />
        </mxCell>
        <mxCell id="4ZO73A1Ub5EUPTTGqCr5-12" value="" style="endArrow=none;html=1;rounded=0;exitX=1;exitY=0.5;exitDx=0;exitDy=0;entryX=0;entryY=0.5;entryDx=0;entryDy=0;" parent="1" source="4ZO73A1Ub5EUPTTGqCr5-11" target="4ZO73A1Ub5EUPTTGqCr5-11" edge="1">
          <mxGeometry width="50" height="50" relative="1" as="geometry">
            <mxPoint x="550" y="270" as="sourcePoint" />
            <mxPoint x="600" y="220" as="targetPoint" />
          </mxGeometry>
        </mxCell>
        <mxCell id="4ZO73A1Ub5EUPTTGqCr5-13" value="" style="endArrow=none;html=1;rounded=0;entryX=0.5;entryY=0;entryDx=0;entryDy=0;exitX=0.5;exitY=1;exitDx=0;exitDy=0;" parent="1" source="4ZO73A1Ub5EUPTTGqCr5-11" target="4ZO73A1Ub5EUPTTGqCr5-11" edge="1">
          <mxGeometry width="50" height="50" relative="1" as="geometry">
            <mxPoint x="410" y="300" as="sourcePoint" />
            <mxPoint x="460" y="250" as="targetPoint" />
          </mxGeometry>
        </mxCell>
        <mxCell id="4ZO73A1Ub5EUPTTGqCr5-14" value="" style="endArrow=none;html=1;rounded=0;exitX=0.5;exitY=0;exitDx=0;exitDy=0;entryX=0.75;entryY=0.067;entryDx=0;entryDy=0;entryPerimeter=0;elbow=horizontal;" parent="1" source="4ZO73A1Ub5EUPTTGqCr5-11" target="4ZO73A1Ub5EUPTTGqCr5-11" edge="1">
          <mxGeometry width="50" height="50" relative="1" as="geometry">
            <mxPoint x="410" y="300" as="sourcePoint" />
            <mxPoint x="460" y="250" as="targetPoint" />
          </mxGeometry>
        </mxCell>
        <mxCell id="4ZO73A1Ub5EUPTTGqCr5-48" value="2" style="edgeLabel;html=1;align=center;verticalAlign=middle;resizable=0;points=[];" parent="4ZO73A1Ub5EUPTTGqCr5-14" vertex="1" connectable="0">
          <mxGeometry x="-0.1733" relative="1" as="geometry">
            <mxPoint as="offset" />
          </mxGeometry>
        </mxCell>
        <mxCell id="4ZO73A1Ub5EUPTTGqCr5-15" value="" style="endArrow=none;html=1;rounded=0;exitX=0.5;exitY=0;exitDx=0;exitDy=0;entryX=0.246;entryY=0.067;entryDx=0;entryDy=0;entryPerimeter=0;elbow=horizontal;" parent="1" source="4ZO73A1Ub5EUPTTGqCr5-11" target="4ZO73A1Ub5EUPTTGqCr5-11" edge="1">
          <mxGeometry width="50" height="50" relative="1" as="geometry">
            <mxPoint x="410" y="300" as="sourcePoint" />
            <mxPoint x="460" y="250" as="targetPoint" />
          </mxGeometry>
        </mxCell>
        <mxCell id="4ZO73A1Ub5EUPTTGqCr5-62" value="1" style="edgeLabel;html=1;align=center;verticalAlign=middle;resizable=0;points=[];" parent="4ZO73A1Ub5EUPTTGqCr5-15" vertex="1" connectable="0">
          <mxGeometry x="-0.163" y="1" relative="1" as="geometry">
            <mxPoint as="offset" />
          </mxGeometry>
        </mxCell>
        <mxCell id="4ZO73A1Ub5EUPTTGqCr5-16" value="" style="endArrow=none;html=1;rounded=0;exitX=0.071;exitY=0.244;exitDx=0;exitDy=0;exitPerimeter=0;entryX=0.232;entryY=0.076;entryDx=0;entryDy=0;entryPerimeter=0;" parent="1" source="4ZO73A1Ub5EUPTTGqCr5-11" target="4ZO73A1Ub5EUPTTGqCr5-11" edge="1">
          <mxGeometry width="50" height="50" relative="1" as="geometry">
            <mxPoint x="410" y="300" as="sourcePoint" />
            <mxPoint x="460" y="250" as="targetPoint" />
          </mxGeometry>
        </mxCell>
        <mxCell id="4ZO73A1Ub5EUPTTGqCr5-63" value="0" style="edgeLabel;html=1;align=center;verticalAlign=middle;resizable=0;points=[];" parent="4ZO73A1Ub5EUPTTGqCr5-16" vertex="1" connectable="0">
          <mxGeometry x="-0.2066" relative="1" as="geometry">
            <mxPoint as="offset" />
          </mxGeometry>
        </mxCell>
        <mxCell id="4ZO73A1Ub5EUPTTGqCr5-25" value="&lt;div&gt;环形视为一个圆，以一个圆环3各轴，一整个圆为12轴为例，等分角The为30度；已知定子长度L；则R = L/2/Sin(15);则M&amp;nbsp; = R - B;&lt;br&gt;&lt;/div&gt;&lt;div&gt;&lt;br&gt;&lt;/div&gt;" style="text;html=1;align=center;verticalAlign=middle;whiteSpace=wrap;rounded=0;strokeColor=default;dashed=1;dashPattern=12 12;" parent="1" vertex="1">
          <mxGeometry x="450" y="170" width="210" height="120" as="geometry" />
        </mxCell>
        <mxCell id="4ZO73A1Ub5EUPTTGqCr5-26" value="" style="endArrow=none;html=1;rounded=0;entryX=0.065;entryY=0.749;entryDx=0;entryDy=0;entryPerimeter=0;" parent="1" target="4ZO73A1Ub5EUPTTGqCr5-11" edge="1">
          <mxGeometry width="50" height="50" relative="1" as="geometry">
            <mxPoint x="295" y="410" as="sourcePoint" />
            <mxPoint x="460" y="330" as="targetPoint" />
          </mxGeometry>
        </mxCell>
        <mxCell id="4ZO73A1Ub5EUPTTGqCr5-30" value="" style="endArrow=none;html=1;rounded=0;exitX=0.067;exitY=0.746;exitDx=0;exitDy=0;exitPerimeter=0;entryX=0;entryY=0.5;entryDx=0;entryDy=0;" parent="1" source="4ZO73A1Ub5EUPTTGqCr5-11" target="4ZO73A1Ub5EUPTTGqCr5-11" edge="1">
          <mxGeometry width="50" height="50" relative="1" as="geometry">
            <mxPoint x="410" y="380" as="sourcePoint" />
            <mxPoint x="460" y="330" as="targetPoint" />
          </mxGeometry>
        </mxCell>
        <mxCell id="4ZO73A1Ub5EUPTTGqCr5-31" value="" style="endArrow=none;html=1;rounded=0;exitX=0;exitY=0.5;exitDx=0;exitDy=0;entryX=0.067;entryY=0.25;entryDx=0;entryDy=0;entryPerimeter=0;" parent="1" source="4ZO73A1Ub5EUPTTGqCr5-11" target="4ZO73A1Ub5EUPTTGqCr5-11" edge="1">
          <mxGeometry width="50" height="50" relative="1" as="geometry">
            <mxPoint x="410" y="380" as="sourcePoint" />
            <mxPoint x="460" y="330" as="targetPoint" />
          </mxGeometry>
        </mxCell>
        <mxCell id="4ZO73A1Ub5EUPTTGqCr5-32" value="" style="endArrow=none;html=1;rounded=0;exitX=0.245;exitY=0.934;exitDx=0;exitDy=0;exitPerimeter=0;entryX=0.5;entryY=1;entryDx=0;entryDy=0;" parent="1" source="4ZO73A1Ub5EUPTTGqCr5-11" target="4ZO73A1Ub5EUPTTGqCr5-11" edge="1">
          <mxGeometry width="50" height="50" relative="1" as="geometry">
            <mxPoint x="410" y="380" as="sourcePoint" />
            <mxPoint x="460" y="330" as="targetPoint" />
          </mxGeometry>
        </mxCell>
        <mxCell id="4ZO73A1Ub5EUPTTGqCr5-33" value="" style="endArrow=none;html=1;rounded=0;exitX=0.5;exitY=1;exitDx=0;exitDy=0;entryX=0.759;entryY=0.932;entryDx=0;entryDy=0;entryPerimeter=0;" parent="1" source="4ZO73A1Ub5EUPTTGqCr5-11" target="4ZO73A1Ub5EUPTTGqCr5-11" edge="1">
          <mxGeometry width="50" height="50" relative="1" as="geometry">
            <mxPoint x="410" y="380" as="sourcePoint" />
            <mxPoint x="460" y="330" as="targetPoint" />
          </mxGeometry>
        </mxCell>
        <mxCell id="4ZO73A1Ub5EUPTTGqCr5-34" value="" style="endArrow=none;html=1;rounded=0;exitX=0.756;exitY=0.93;exitDx=0;exitDy=0;exitPerimeter=0;entryX=0.929;entryY=0.756;entryDx=0;entryDy=0;entryPerimeter=0;" parent="1" source="4ZO73A1Ub5EUPTTGqCr5-11" target="4ZO73A1Ub5EUPTTGqCr5-11" edge="1">
          <mxGeometry width="50" height="50" relative="1" as="geometry">
            <mxPoint x="410" y="380" as="sourcePoint" />
            <mxPoint x="470" y="350" as="targetPoint" />
          </mxGeometry>
        </mxCell>
        <mxCell id="4ZO73A1Ub5EUPTTGqCr5-36" value="" style="endArrow=none;html=1;rounded=0;exitX=0.928;exitY=0.751;exitDx=0;exitDy=0;exitPerimeter=0;entryX=0.749;entryY=0.065;entryDx=0;entryDy=0;entryPerimeter=0;" parent="1" source="4ZO73A1Ub5EUPTTGqCr5-11" target="4ZO73A1Ub5EUPTTGqCr5-6" edge="1">
          <mxGeometry width="50" height="50" relative="1" as="geometry">
            <mxPoint x="410" y="380" as="sourcePoint" />
            <mxPoint x="460" y="330" as="targetPoint" />
          </mxGeometry>
        </mxCell>
        <mxCell id="4ZO73A1Ub5EUPTTGqCr5-37" value="" style="endArrow=none;html=1;rounded=0;exitX=1;exitY=0.5;exitDx=0;exitDy=0;entryX=0.939;entryY=0.258;entryDx=0;entryDy=0;entryPerimeter=0;" parent="1" source="4ZO73A1Ub5EUPTTGqCr5-11" target="4ZO73A1Ub5EUPTTGqCr5-11" edge="1">
          <mxGeometry width="50" height="50" relative="1" as="geometry">
            <mxPoint x="410" y="380" as="sourcePoint" />
            <mxPoint x="460" y="330" as="targetPoint" />
          </mxGeometry>
        </mxCell>
        <mxCell id="4ZO73A1Ub5EUPTTGqCr5-38" value="" style="endArrow=none;html=1;rounded=0;exitX=0.75;exitY=0.067;exitDx=0;exitDy=0;exitPerimeter=0;entryX=0.934;entryY=0.259;entryDx=0;entryDy=0;entryPerimeter=0;" parent="1" source="4ZO73A1Ub5EUPTTGqCr5-11" target="4ZO73A1Ub5EUPTTGqCr5-11" edge="1">
          <mxGeometry width="50" height="50" relative="1" as="geometry">
            <mxPoint x="410" y="380" as="sourcePoint" />
            <mxPoint x="460" y="330" as="targetPoint" />
          </mxGeometry>
        </mxCell>
        <mxCell id="4ZO73A1Ub5EUPTTGqCr5-40" value="" style="endArrow=classic;startArrow=classic;html=1;rounded=0;exitX=0.825;exitY=0.122;exitDx=0;exitDy=0;exitPerimeter=0;entryX=0.5;entryY=0;entryDx=0;entryDy=0;fillColor=#d5e8d4;strokeColor=#82b366;" parent="1" source="4ZO73A1Ub5EUPTTGqCr5-11" edge="1">
          <mxGeometry width="50" height="50" relative="1" as="geometry">
            <mxPoint x="310.0028878964277" y="139.9988357484523" as="sourcePoint" />
            <mxPoint x="310.91" y="181.03" as="targetPoint" />
          </mxGeometry>
        </mxCell>
        <mxCell id="4ZO73A1Ub5EUPTTGqCr5-41" value="&lt;font style=&quot;font-size: 6px;&quot;&gt;宽度B&lt;/font&gt;" style="edgeLabel;html=1;align=center;verticalAlign=middle;resizable=0;points=[];labelBorderColor=none;labelBackgroundColor=default;rotation=0;" parent="4ZO73A1Ub5EUPTTGqCr5-40" vertex="1" connectable="0">
          <mxGeometry x="-0.0289" relative="1" as="geometry">
            <mxPoint as="offset" />
          </mxGeometry>
        </mxCell>
        <mxCell id="4ZO73A1Ub5EUPTTGqCr5-42" value="" style="ellipse;whiteSpace=wrap;html=1;aspect=fixed;opacity=50;" parent="1" vertex="1">
          <mxGeometry x="201.25" y="180" width="187.5" height="187.5" as="geometry" />
        </mxCell>
        <mxCell id="4ZO73A1Ub5EUPTTGqCr5-43" value="" style="endArrow=classic;startArrow=classic;html=1;rounded=0;exitX=0;exitY=1;exitDx=0;exitDy=0;fillColor=#f8cecc;strokeColor=#b85450;" parent="1" source="4ZO73A1Ub5EUPTTGqCr5-44" edge="1">
          <mxGeometry width="50" height="50" relative="1" as="geometry">
            <mxPoint x="330" y="300" as="sourcePoint" />
            <mxPoint x="340" y="150" as="targetPoint" />
          </mxGeometry>
        </mxCell>
        <mxCell id="4ZO73A1Ub5EUPTTGqCr5-45" value="&lt;div style=&quot;font-size: 8px;&quot;&gt;R外径&lt;/div&gt;" style="edgeLabel;html=1;align=center;verticalAlign=middle;resizable=0;points=[];" parent="4ZO73A1Ub5EUPTTGqCr5-43" vertex="1" connectable="0">
          <mxGeometry x="0.0745" relative="1" as="geometry">
            <mxPoint as="offset" />
          </mxGeometry>
        </mxCell>
        <mxCell id="4ZO73A1Ub5EUPTTGqCr5-44" value="" style="ellipse;whiteSpace=wrap;html=1;aspect=fixed;" parent="1" vertex="1">
          <mxGeometry x="294" y="274" width="1.88" height="1.88" as="geometry" />
        </mxCell>
        <mxCell id="4ZO73A1Ub5EUPTTGqCr5-46" value="" style="endArrow=classic;startArrow=classic;html=1;rounded=0;exitX=0;exitY=0;exitDx=0;exitDy=0;entryX=0;entryY=1;entryDx=0;entryDy=0;" parent="1" source="4ZO73A1Ub5EUPTTGqCr5-42" target="4ZO73A1Ub5EUPTTGqCr5-44" edge="1">
          <mxGeometry width="50" height="50" relative="1" as="geometry">
            <mxPoint x="220" y="280" as="sourcePoint" />
            <mxPoint x="270" y="230" as="targetPoint" />
          </mxGeometry>
        </mxCell>
        <mxCell id="4ZO73A1Ub5EUPTTGqCr5-47" value="&lt;font style=&quot;font-size: 8px;&quot;&gt;M中径&lt;/font&gt;" style="edgeLabel;html=1;align=center;verticalAlign=middle;resizable=0;points=[];" parent="4ZO73A1Ub5EUPTTGqCr5-46" vertex="1" connectable="0">
          <mxGeometry x="-0.1838" y="-1" relative="1" as="geometry">
            <mxPoint as="offset" />
          </mxGeometry>
        </mxCell>
        <mxCell id="4ZO73A1Ub5EUPTTGqCr5-49" value="" style="endArrow=classic;startArrow=classic;html=1;rounded=0;entryX=0.74;entryY=0.64;entryDx=0;entryDy=0;entryPerimeter=0;exitX=0.633;exitY=0.747;exitDx=0;exitDy=0;exitPerimeter=0;elbow=vertical;" parent="1" source="4ZO73A1Ub5EUPTTGqCr5-42" target="4ZO73A1Ub5EUPTTGqCr5-42" edge="1">
          <mxGeometry width="50" height="50" relative="1" as="geometry">
            <mxPoint x="330" y="330" as="sourcePoint" />
            <mxPoint x="380" y="280" as="targetPoint" />
          </mxGeometry>
        </mxCell>
        <mxCell id="4ZO73A1Ub5EUPTTGqCr5-50" value="&lt;font style=&quot;font-size: 8px;&quot;&gt;等分角The&lt;/font&gt;" style="edgeLabel;html=1;align=center;verticalAlign=middle;resizable=0;points=[];rotation=50;" parent="4ZO73A1Ub5EUPTTGqCr5-49" vertex="1" connectable="0">
          <mxGeometry x="0.0752" relative="1" as="geometry">
            <mxPoint as="offset" />
          </mxGeometry>
        </mxCell>
        <mxCell id="4ZO73A1Ub5EUPTTGqCr5-51" value="" style="rounded=0;whiteSpace=wrap;html=1;" parent="1" vertex="1">
          <mxGeometry x="470" y="350" width="120" height="60" as="geometry" />
        </mxCell>
        <mxCell id="4ZO73A1Ub5EUPTTGqCr5-52" value="" style="endArrow=none;dashed=1;html=1;dashPattern=1 3;strokeWidth=2;rounded=0;entryX=1;entryY=0.5;entryDx=0;entryDy=0;exitX=0;exitY=0.5;exitDx=0;exitDy=0;elbow=horizontal;" parent="1" source="4ZO73A1Ub5EUPTTGqCr5-51" target="4ZO73A1Ub5EUPTTGqCr5-51" edge="1">
          <mxGeometry width="50" height="50" relative="1" as="geometry">
            <mxPoint x="490" y="420" as="sourcePoint" />
            <mxPoint x="540" y="370" as="targetPoint" />
          </mxGeometry>
        </mxCell>
        <mxCell id="4ZO73A1Ub5EUPTTGqCr5-57" value="定子" style="edgeLabel;html=1;align=center;verticalAlign=middle;resizable=0;points=[];" parent="4ZO73A1Ub5EUPTTGqCr5-52" vertex="1" connectable="0">
          <mxGeometry x="-0.3253" y="-2" relative="1" as="geometry">
            <mxPoint x="19" y="38" as="offset" />
          </mxGeometry>
        </mxCell>
        <mxCell id="4ZO73A1Ub5EUPTTGqCr5-53" value="" style="endArrow=classic;startArrow=classic;html=1;rounded=0;entryX=0.75;entryY=0;entryDx=0;entryDy=0;" parent="1" target="4ZO73A1Ub5EUPTTGqCr5-51" edge="1">
          <mxGeometry width="50" height="50" relative="1" as="geometry">
            <mxPoint x="560" y="380" as="sourcePoint" />
            <mxPoint x="610" y="410" as="targetPoint" />
          </mxGeometry>
        </mxCell>
        <mxCell id="4ZO73A1Ub5EUPTTGqCr5-54" value="&lt;font style=&quot;font-size: 8px;&quot;&gt;宽度&lt;/font&gt;&lt;font style=&quot;font-size: 8px;&quot;&gt;B&lt;/font&gt;" style="edgeLabel;html=1;align=center;verticalAlign=middle;resizable=0;points=[];" parent="4ZO73A1Ub5EUPTTGqCr5-53" vertex="1" connectable="0">
          <mxGeometry x="0.0552" relative="1" as="geometry">
            <mxPoint as="offset" />
          </mxGeometry>
        </mxCell>
        <mxCell id="4ZO73A1Ub5EUPTTGqCr5-58" value="&lt;div&gt;定子边端坐标P实在定子边端中心,所以为了使圆环边端坐标与定子边端坐标保持一致需要用中径计算坐标&lt;br&gt;&lt;/div&gt;&lt;div&gt;&lt;br&gt;&lt;/div&gt;" style="text;html=1;align=center;verticalAlign=middle;whiteSpace=wrap;rounded=0;strokeColor=default;dashed=1;dashPattern=12 12;" parent="1" vertex="1">
          <mxGeometry x="600" y="340" width="110" height="100" as="geometry" />
        </mxCell>
        <mxCell id="4ZO73A1Ub5EUPTTGqCr5-59" value="P" style="ellipse;whiteSpace=wrap;html=1;aspect=fixed;" parent="1" vertex="1">
          <mxGeometry x="465" y="375" width="10" height="10" as="geometry" />
        </mxCell>
        <mxCell id="4ZO73A1Ub5EUPTTGqCr5-60" value="中心O" style="edgeLabel;html=1;align=center;verticalAlign=middle;resizable=0;points=[];" parent="1" vertex="1" connectable="0">
          <mxGeometry x="465.0033333333333" y="300" as="geometry">
            <mxPoint x="-170" y="-20" as="offset" />
          </mxGeometry>
        </mxCell>
        <mxCell id="4ZO73A1Ub5EUPTTGqCr5-61" value="&lt;div&gt;&lt;font style=&quot;font-size: 12px;&quot;&gt;&lt;br&gt;&lt;/font&gt;&lt;/div&gt;&lt;div&gt;&lt;font style=&quot;font-size: 12px;&quot;&gt;&lt;br&gt;&lt;/font&gt;&lt;/div&gt;&lt;div&gt;&lt;font style=&quot;font-size: 12px;&quot;&gt;&lt;br&gt;&lt;/font&gt;&lt;/div&gt;&lt;div&gt;&lt;font style=&quot;font-size: 12px;&quot;&gt;轴0 px0 = Ox - M*sin(90)&lt;/font&gt;&lt;/div&gt;&lt;div&gt;&lt;font style=&quot;font-size: 12px;&quot;&gt;&amp;nbsp;&amp;nbsp;&amp;nbsp;&amp;nbsp;&amp;nbsp;&amp;nbsp;&amp;nbsp;&amp;nbsp;&amp;nbsp; py0 = Oy + M*cos(90）&lt;/font&gt;&lt;/div&gt;&lt;div&gt;&lt;div&gt;&lt;font style=&quot;font-size: 12px;&quot;&gt;轴1 px1 = Ox - M*sin(60)&lt;/font&gt;&lt;/div&gt;&lt;font style=&quot;font-size: 12px;&quot;&gt;&amp;nbsp;&amp;nbsp;&amp;nbsp;&amp;nbsp;&amp;nbsp;&amp;nbsp;&amp;nbsp;&amp;nbsp;&amp;nbsp; py1 = Oy + M*cos(60）&lt;/font&gt;&lt;/div&gt;&lt;div&gt;&lt;div&gt;&lt;font style=&quot;font-size: 12px;&quot;&gt;轴2 px2 = Ox - M*sin(30)&lt;/font&gt;&lt;/div&gt;&lt;font style=&quot;font-size: 12px;&quot;&gt;&amp;nbsp;&amp;nbsp;&amp;nbsp;&amp;nbsp;&amp;nbsp;&amp;nbsp;&amp;nbsp;&amp;nbsp;&amp;nbsp; py2 = Oy + M*cos(30)&lt;/font&gt;&lt;/div&gt;&lt;div&gt;&lt;font style=&quot;font-size: 12px;&quot;&gt;&lt;br&gt;&lt;/font&gt;&lt;/div&gt;&lt;div&gt;&lt;font style=&quot;font-size: 12px;&quot;&gt;&lt;br&gt;&lt;/font&gt;&lt;div align=&quot;center&quot;&gt;&lt;br&gt;&lt;/div&gt;&lt;/div&gt;" style="text;html=1;align=center;verticalAlign=middle;whiteSpace=wrap;rounded=0;strokeColor=default;dashed=1;dashPattern=12 12;" parent="1" vertex="1">
          <mxGeometry x="422.94" y="465" width="167.06" height="85" as="geometry" />
        </mxCell>
        <mxCell id="4ZO73A1Ub5EUPTTGqCr5-64" value="计算边端位置" style="edgeLabel;html=1;align=center;verticalAlign=middle;resizable=0;points=[];" parent="1" vertex="1" connectable="0">
          <mxGeometry x="520.0033333333332" y="410" as="geometry">
            <mxPoint x="-15" y="150" as="offset" />
          </mxGeometry>
        </mxCell>
        <mxCell id="dwJ0m4_YwyUEJ83W4lfC-2" value="" style="verticalLabelPosition=bottom;verticalAlign=top;html=1;shape=mxgraph.basic.patternFillRect;fillStyle=vert;step=5;fillStrokeWidth=0.2;fillStrokeColor=#dddddd;fillColor=#e1d5e7;strokeColor=#9673a6;" parent="1" vertex="1">
          <mxGeometry x="230" y="760" width="121" height="60" as="geometry" />
        </mxCell>
        <mxCell id="dwJ0m4_YwyUEJ83W4lfC-3" value="" style="verticalLabelPosition=bottom;verticalAlign=top;html=1;shape=mxgraph.basic.patternFillRect;fillStyle=vert;step=5;fillStrokeWidth=0.2;fillStrokeColor=#dddddd;fillColor=#e1d5e7;strokeColor=#9673a6;" parent="1" vertex="1">
          <mxGeometry x="100" y="760" width="121" height="60" as="geometry" />
        </mxCell>
        <mxCell id="dwJ0m4_YwyUEJ83W4lfC-4" value="" style="verticalLabelPosition=bottom;verticalAlign=top;html=1;shape=mxgraph.basic.patternFillRect;fillStyle=vert;step=5;fillStrokeWidth=0.2;fillStrokeColor=#dddddd;fillColor=#ffe6cc;strokeColor=#d79b00;" parent="1" vertex="1">
          <mxGeometry x="160" y="700" width="120" height="60" as="geometry" />
        </mxCell>
        <mxCell id="dwJ0m4_YwyUEJ83W4lfC-5" value="" style="verticalLabelPosition=bottom;verticalAlign=top;html=1;shape=mxgraph.basic.patternFillRect;fillStyle=vert;step=5;fillStrokeWidth=0.2;fillStrokeColor=#dddddd;fillColor=#e1d5e7;strokeColor=#9673a6;" parent="1" vertex="1">
          <mxGeometry x="360" y="760" width="121" height="60" as="geometry" />
        </mxCell>
        <mxCell id="dwJ0m4_YwyUEJ83W4lfC-6" value="" style="verticalLabelPosition=bottom;verticalAlign=top;html=1;shape=mxgraph.basic.patternFillRect;fillStyle=vert;step=5;fillStrokeWidth=0.2;fillStrokeColor=#dddddd;fillColor=#e1d5e7;strokeColor=#9673a6;" parent="1" vertex="1">
          <mxGeometry x="494.5" y="760" width="121" height="60" as="geometry" />
        </mxCell>
        <mxCell id="dwJ0m4_YwyUEJ83W4lfC-7" value="动子0启动时清楚之前跨越的定子，动子0运动到终点时需要跨越定子1、2、3，相对式的绝对反馈 = Ct + 经过的定子数的长度和 + cp" style="text;html=1;align=center;verticalAlign=middle;whiteSpace=wrap;rounded=0;strokeColor=default;dashed=1;dashPattern=12 12;" parent="1" vertex="1">
          <mxGeometry x="160" y="840" width="167.06" height="85" as="geometry" />
        </mxCell>
        <mxCell id="dwJ0m4_YwyUEJ83W4lfC-8" value="动子0" style="text;html=1;align=center;verticalAlign=middle;resizable=0;points=[];autosize=1;strokeColor=none;fillColor=none;" parent="1" vertex="1">
          <mxGeometry x="195" y="715" width="50" height="30" as="geometry" />
        </mxCell>
        <mxCell id="dwJ0m4_YwyUEJ83W4lfC-9" value="定子1" style="text;html=1;align=center;verticalAlign=middle;resizable=0;points=[];autosize=1;strokeColor=none;fillColor=none;" parent="1" vertex="1">
          <mxGeometry x="135.5" y="775" width="50" height="30" as="geometry" />
        </mxCell>
        <mxCell id="dwJ0m4_YwyUEJ83W4lfC-10" value="定子2" style="text;html=1;align=center;verticalAlign=middle;resizable=0;points=[];autosize=1;strokeColor=none;fillColor=none;" parent="1" vertex="1">
          <mxGeometry x="269.94" y="775" width="50" height="30" as="geometry" />
        </mxCell>
        <mxCell id="dwJ0m4_YwyUEJ83W4lfC-11" value="定子3" style="text;html=1;align=center;verticalAlign=middle;resizable=0;points=[];autosize=1;strokeColor=none;fillColor=none;" parent="1" vertex="1">
          <mxGeometry x="400" y="775" width="50" height="30" as="geometry" />
        </mxCell>
        <mxCell id="dwJ0m4_YwyUEJ83W4lfC-13" value="定子4" style="text;html=1;align=center;verticalAlign=middle;resizable=0;points=[];autosize=1;strokeColor=none;fillColor=none;" parent="1" vertex="1">
          <mxGeometry x="530" y="775" width="50" height="30" as="geometry" />
        </mxCell>
        <mxCell id="dwJ0m4_YwyUEJ83W4lfC-15" value="" style="verticalLabelPosition=bottom;verticalAlign=top;html=1;shape=mxgraph.basic.patternFillRect;fillStyle=vert;step=5;fillStrokeWidth=0.2;fillStrokeColor=#dddddd;fillColor=#ffe6cc;strokeColor=#d79b00;dashed=1;dashPattern=8 8;opacity=50;" parent="1" vertex="1">
          <mxGeometry x="416.46999999999997" y="697.5" width="120" height="60" as="geometry" />
        </mxCell>
        <mxCell id="dwJ0m4_YwyUEJ83W4lfC-16" value="动子0" style="text;html=1;align=center;verticalAlign=middle;resizable=0;points=[];autosize=1;strokeColor=none;fillColor=none;" parent="1" vertex="1">
          <mxGeometry x="457.94" y="710" width="50" height="30" as="geometry" />
        </mxCell>
        <mxCell id="dwJ0m4_YwyUEJ83W4lfC-18" value="" style="verticalLabelPosition=bottom;verticalAlign=top;html=1;shape=mxgraph.basic.8_point_star" parent="1" vertex="1">
          <mxGeometry x="520" y="707.5" width="40" height="35" as="geometry" />
        </mxCell>
        <mxCell id="dwJ0m4_YwyUEJ83W4lfC-20" value="终点" style="text;html=1;align=center;verticalAlign=middle;resizable=0;points=[];autosize=1;strokeColor=none;fillColor=none;" parent="1" vertex="1">
          <mxGeometry x="515" y="712.5" width="50" height="30" as="geometry" />
        </mxCell>
        <mxCell id="dwJ0m4_YwyUEJ83W4lfC-21" value="" style="endArrow=classic;startArrow=classic;html=1;rounded=0;exitX=0.625;exitY=0.517;exitDx=0;exitDy=0;exitPerimeter=0;elbow=horizontal;entryX=1;entryY=0.5;entryDx=0;entryDy=0;entryPerimeter=0;" parent="1" edge="1">
          <mxGeometry width="50" height="50" relative="1" as="geometry">
            <mxPoint x="236" y="731.02" as="sourcePoint" />
            <mxPoint x="281" y="730" as="targetPoint" />
          </mxGeometry>
        </mxCell>
        <mxCell id="dwJ0m4_YwyUEJ83W4lfC-22" value="Ct" style="edgeLabel;html=1;align=center;verticalAlign=middle;resizable=0;points=[];" parent="dwJ0m4_YwyUEJ83W4lfC-21" vertex="1" connectable="0">
          <mxGeometry x="0.3259" y="-1" relative="1" as="geometry">
            <mxPoint as="offset" />
          </mxGeometry>
        </mxCell>
        <mxCell id="dwJ0m4_YwyUEJ83W4lfC-25" value="动子0的绝对位置 = Ct + 定子1的长度" style="text;html=1;align=center;verticalAlign=middle;whiteSpace=wrap;rounded=0;strokeColor=default;dashed=1;dashPattern=12 12;" parent="1" vertex="1">
          <mxGeometry x="112.94" y="640" width="167.06" height="85" as="geometry" />
        </mxCell>
        <mxCell id="dwJ0m4_YwyUEJ83W4lfC-26" value="动子0的绝对位置 = Ct + 定子1的长度 + 定子2的长度+定子3的长度" style="text;html=1;align=center;verticalAlign=middle;whiteSpace=wrap;rounded=0;strokeColor=default;dashed=1;dashPattern=12 12;" parent="1" vertex="1">
          <mxGeometry x="392.94" y="627.5" width="167.06" height="85" as="geometry" />
        </mxCell>
        <mxCell id="dwJ0m4_YwyUEJ83W4lfC-32" value="" style="endArrow=classic;startArrow=classic;html=1;rounded=0;exitX=0;exitY=0.5;exitDx=0;exitDy=0;exitPerimeter=0;elbow=horizontal;" parent="1" source="dwJ0m4_YwyUEJ83W4lfC-6" edge="1">
          <mxGeometry width="50" height="50" relative="1" as="geometry">
            <mxPoint x="256" y="751.02" as="sourcePoint" />
            <mxPoint x="540" y="790" as="targetPoint" />
          </mxGeometry>
        </mxCell>
        <mxCell id="dwJ0m4_YwyUEJ83W4lfC-33" value="Ct" style="edgeLabel;html=1;align=center;verticalAlign=middle;resizable=0;points=[];" parent="dwJ0m4_YwyUEJ83W4lfC-32" vertex="1" connectable="0">
          <mxGeometry x="0.3259" y="-1" relative="1" as="geometry">
            <mxPoint as="offset" />
          </mxGeometry>
        </mxCell>
        <mxCell id="dwJ0m4_YwyUEJ83W4lfC-36" value="" style="endArrow=none;html=1;rounded=0;" parent="1" target="dwJ0m4_YwyUEJ83W4lfC-20" edge="1">
          <mxGeometry width="50" height="50" relative="1" as="geometry">
            <mxPoint x="540" y="910" as="sourcePoint" />
            <mxPoint x="210" y="810" as="targetPoint" />
          </mxGeometry>
        </mxCell>
        <mxCell id="dwJ0m4_YwyUEJ83W4lfC-37" value="Ct为动子在当前定子上的反馈；cp为当前定子和上一个定子之间的缝隙" style="text;html=1;align=center;verticalAlign=middle;whiteSpace=wrap;rounded=0;strokeColor=default;dashed=1;dashPattern=12 12;" parent="1" vertex="1">
          <mxGeometry x="381.47" y="840" width="167.06" height="85" as="geometry" />
        </mxCell>
        <mxCell id="dwJ0m4_YwyUEJ83W4lfC-38" value="" style="endArrow=classic;startArrow=classic;html=1;rounded=0;exitX=1;exitY=0.5;exitDx=0;exitDy=0;exitPerimeter=0;entryX=0;entryY=0.5;entryDx=0;entryDy=0;entryPerimeter=0;" parent="1" source="dwJ0m4_YwyUEJ83W4lfC-2" target="dwJ0m4_YwyUEJ83W4lfC-5" edge="1">
          <mxGeometry width="50" height="50" relative="1" as="geometry">
            <mxPoint x="60" y="1090" as="sourcePoint" />
            <mxPoint x="120" y="1090" as="targetPoint" />
          </mxGeometry>
        </mxCell>
        <mxCell id="dwJ0m4_YwyUEJ83W4lfC-39" value="cp" style="text;html=1;align=center;verticalAlign=middle;resizable=0;points=[];autosize=1;strokeColor=none;fillColor=none;" parent="1" vertex="1">
          <mxGeometry x="340" y="760" width="40" height="30" as="geometry" />
        </mxCell>
        <mxCell id="dwJ0m4_YwyUEJ83W4lfC-44" value="" style="edgeStyle=orthogonalEdgeStyle;rounded=0;orthogonalLoop=1;jettySize=auto;html=1;" parent="1" source="dwJ0m4_YwyUEJ83W4lfC-40" target="dwJ0m4_YwyUEJ83W4lfC-43" edge="1">
          <mxGeometry relative="1" as="geometry" />
        </mxCell>
        <mxCell id="dwJ0m4_YwyUEJ83W4lfC-40" value="&lt;div&gt;NOT&lt;br&gt;&lt;/div&gt;&lt;div&gt;CONTROL&lt;br&gt;&lt;/div&gt;" style="rounded=1;whiteSpace=wrap;html=1;absoluteArcSize=1;arcSize=14;strokeWidth=2;" parent="1" vertex="1">
          <mxGeometry x="1010" y="310" width="100" height="100" as="geometry" />
        </mxCell>
        <mxCell id="dwJ0m4_YwyUEJ83W4lfC-43" value="&lt;div style=&quot;font-size: 24px;&quot;&gt;不断刷新：&lt;/div&gt;&lt;div style=&quot;font-size: 24px;&quot;&gt;相对式当前全局反馈位置currentPosrel = 编码器反馈Ct：&lt;/div&gt;&lt;div style=&quot;font-size: 24px;&quot;&gt;运动绝对指令（todriver）和用户（userCmd）绝对位置指令abspostioncmd为相对式当前区局反馈currentPosrel ；&lt;/div&gt;&lt;div style=&quot;font-size: 24px;&quot;&gt;上一拍的监控定子laststatorMonitor为当前监控定子statorMonitor；&lt;br style=&quot;font-size: 24px;&quot;&gt;&lt;/div&gt;" style="whiteSpace=wrap;html=1;rounded=1;arcSize=14;strokeWidth=2;fontSize=24;" parent="1" vertex="1">
          <mxGeometry x="930" y="527.5" width="257.5" height="452.5" as="geometry" />
        </mxCell>
        <mxCell id="dwJ0m4_YwyUEJ83W4lfC-45" value="相对式运动流程图" style="text;html=1;align=center;verticalAlign=middle;resizable=0;points=[];autosize=1;strokeColor=none;fillColor=none;fontSize=36;" parent="1" vertex="1">
          <mxGeometry x="1045" y="230.88" width="310" height="60" as="geometry" />
        </mxCell>
        <mxCell id="dwJ0m4_YwyUEJ83W4lfC-48" value="" style="edgeStyle=orthogonalEdgeStyle;rounded=0;orthogonalLoop=1;jettySize=auto;html=1;" parent="1" source="dwJ0m4_YwyUEJ83W4lfC-46" target="dwJ0m4_YwyUEJ83W4lfC-47" edge="1">
          <mxGeometry relative="1" as="geometry" />
        </mxCell>
        <mxCell id="dwJ0m4_YwyUEJ83W4lfC-46" value="CONTROl" style="rounded=1;whiteSpace=wrap;html=1;absoluteArcSize=1;arcSize=14;strokeWidth=2;" parent="1" vertex="1">
          <mxGeometry x="1350" y="310" width="100" height="100" as="geometry" />
        </mxCell>
        <mxCell id="dwJ0m4_YwyUEJ83W4lfC-50" value="" style="edgeStyle=orthogonalEdgeStyle;rounded=0;orthogonalLoop=1;jettySize=auto;html=1;" parent="1" source="dwJ0m4_YwyUEJ83W4lfC-47" target="dwJ0m4_YwyUEJ83W4lfC-49" edge="1">
          <mxGeometry relative="1" as="geometry" />
        </mxCell>
        <mxCell id="dwJ0m4_YwyUEJ83W4lfC-47" value="指令下发" style="rounded=1;whiteSpace=wrap;html=1;absoluteArcSize=1;arcSize=14;strokeWidth=2;" parent="1" vertex="1">
          <mxGeometry x="1350" y="490" width="100" height="100" as="geometry" />
        </mxCell>
        <mxCell id="dwJ0m4_YwyUEJ83W4lfC-66" value="" style="edgeStyle=orthogonalEdgeStyle;rounded=0;orthogonalLoop=1;jettySize=auto;html=1;" parent="1" source="dwJ0m4_YwyUEJ83W4lfC-49" target="dwJ0m4_YwyUEJ83W4lfC-65" edge="1">
          <mxGeometry relative="1" as="geometry" />
        </mxCell>
        <mxCell id="dwJ0m4_YwyUEJ83W4lfC-49" value="&lt;div style=&quot;font-size: 24px;&quot;&gt;收到指令时，清空当前记录的运动定子长度distance；&lt;/div&gt;&lt;div style=&quot;font-size: 24px;&quot;&gt;指令位置absposcmd = absposcmd - distance；&lt;/div&gt;&lt;div style=&quot;font-size: 24px;&quot;&gt;反馈位置currentPosRel为当前编码器反馈位置Ct&lt;br style=&quot;font-size: 24px;&quot;&gt;&lt;/div&gt;" style="rounded=1;whiteSpace=wrap;html=1;absoluteArcSize=1;arcSize=14;strokeWidth=2;fontSize=24;" parent="1" vertex="1">
          <mxGeometry x="1215" y="660" width="370" height="280" as="geometry" />
        </mxCell>
        <mxCell id="dwJ0m4_YwyUEJ83W4lfC-51" value="" style="verticalLabelPosition=bottom;verticalAlign=top;html=1;shape=mxgraph.basic.patternFillRect;fillStyle=vert;step=5;fillStrokeWidth=0.2;fillStrokeColor=#dddddd;fillColor=#e1d5e7;strokeColor=#9673a6;" parent="1" vertex="1">
          <mxGeometry x="1800" y="720" width="123" height="60" as="geometry" />
        </mxCell>
        <mxCell id="dwJ0m4_YwyUEJ83W4lfC-52" value="" style="verticalLabelPosition=bottom;verticalAlign=top;html=1;shape=mxgraph.basic.patternFillRect;fillStyle=vert;step=5;fillStrokeWidth=0.2;fillStrokeColor=#dddddd;fillColor=#e1d5e7;strokeColor=#9673a6;" parent="1" vertex="1">
          <mxGeometry x="1660" y="720" width="123" height="60" as="geometry" />
        </mxCell>
        <mxCell id="dwJ0m4_YwyUEJ83W4lfC-53" value="" style="verticalLabelPosition=bottom;verticalAlign=top;html=1;shape=mxgraph.basic.patternFillRect;fillStyle=vert;step=5;fillStrokeWidth=0.2;fillStrokeColor=#dddddd;fillColor=#e1d5e7;strokeColor=#9673a6;" parent="1" vertex="1">
          <mxGeometry x="1945" y="720" width="123" height="60" as="geometry" />
        </mxCell>
        <mxCell id="dwJ0m4_YwyUEJ83W4lfC-55" value="" style="verticalLabelPosition=bottom;verticalAlign=top;html=1;shape=mxgraph.basic.patternFillRect;fillStyle=vert;step=5;fillStrokeWidth=0.2;fillStrokeColor=#dddddd;fillColor=#ffe6cc;strokeColor=#d79b00;" parent="1" vertex="1">
          <mxGeometry x="1750" y="655" width="120" height="60" as="geometry" />
        </mxCell>
        <mxCell id="dwJ0m4_YwyUEJ83W4lfC-57" value="&lt;div&gt;收到指令去定子3上某一个位置，当前反馈路程清空，即清空定子1的长度，相对式反馈全局位置变为ct；&lt;/div&gt;" style="text;html=1;align=center;verticalAlign=middle;whiteSpace=wrap;rounded=0;strokeColor=default;dashed=1;dashPattern=12 12;fontSize=24;" parent="1" vertex="1">
          <mxGeometry x="1671.5" y="820" width="388.5" height="140" as="geometry" />
        </mxCell>
        <mxCell id="dwJ0m4_YwyUEJ83W4lfC-58" value="定子1" style="text;html=1;align=center;verticalAlign=middle;resizable=0;points=[];autosize=1;strokeColor=none;fillColor=none;" parent="1" vertex="1">
          <mxGeometry x="1696.5" y="735" width="50" height="30" as="geometry" />
        </mxCell>
        <mxCell id="dwJ0m4_YwyUEJ83W4lfC-59" value="定子2" style="text;whiteSpace=wrap;html=1;" parent="1" vertex="1">
          <mxGeometry x="1840" y="735" width="60" height="40" as="geometry" />
        </mxCell>
        <mxCell id="dwJ0m4_YwyUEJ83W4lfC-60" value="定子3" style="text;whiteSpace=wrap;html=1;" parent="1" vertex="1">
          <mxGeometry x="1990" y="735" width="60" height="40" as="geometry" />
        </mxCell>
        <mxCell id="dwJ0m4_YwyUEJ83W4lfC-61" value="动子" style="text;html=1;align=center;verticalAlign=middle;resizable=0;points=[];autosize=1;strokeColor=none;fillColor=none;" parent="1" vertex="1">
          <mxGeometry x="1783" y="660" width="50" height="30" as="geometry" />
        </mxCell>
        <mxCell id="dwJ0m4_YwyUEJ83W4lfC-63" value="" style="endArrow=classic;startArrow=classic;html=1;rounded=0;entryX=1;entryY=0.5;entryDx=0;entryDy=0;entryPerimeter=0;exitX=0.463;exitY=0.532;exitDx=0;exitDy=0;exitPerimeter=0;" parent="1" source="dwJ0m4_YwyUEJ83W4lfC-55" target="dwJ0m4_YwyUEJ83W4lfC-55" edge="1">
          <mxGeometry width="50" height="50" relative="1" as="geometry">
            <mxPoint x="1900" y="920" as="sourcePoint" />
            <mxPoint x="1950" y="870" as="targetPoint" />
          </mxGeometry>
        </mxCell>
        <mxCell id="dwJ0m4_YwyUEJ83W4lfC-64" value="Ct" style="text;html=1;align=center;verticalAlign=middle;resizable=0;points=[];autosize=1;strokeColor=none;fillColor=none;" parent="1" vertex="1">
          <mxGeometry x="1813.53" y="680" width="40" height="30" as="geometry" />
        </mxCell>
        <mxCell id="dwJ0m4_YwyUEJ83W4lfC-65" value="&lt;div&gt;开始运动后，检测监控定子；&lt;/div&gt;&lt;div&gt;如发生改变，1）当前监控定子在上一拍监控定子下游，则distance= distance + 120；&lt;/div&gt;&lt;div&gt;2）当前监控定子在上一拍监控定子上游则 distance = distance - 120&lt;/div&gt;&lt;div&gt;记录上一拍监控定子，相对式全局反馈位置currentPosrel = distance + Ct&lt;br&gt;&lt;/div&gt;" style="rounded=1;whiteSpace=wrap;html=1;fontSize=24;arcSize=14;strokeWidth=2;" parent="1" vertex="1">
          <mxGeometry x="1177.5" y="1050" width="445" height="410" as="geometry" />
        </mxCell>
        <mxCell id="dwJ0m4_YwyUEJ83W4lfC-69" value="" style="rounded=0;whiteSpace=wrap;html=1;" parent="1" vertex="1">
          <mxGeometry x="2030" y="360" width="570" height="200" as="geometry" />
        </mxCell>
        <mxCell id="dwJ0m4_YwyUEJ83W4lfC-70" value="" style="rounded=0;whiteSpace=wrap;html=1;direction=south;rotation=60;" parent="1" vertex="1">
          <mxGeometry x="2758.77" y="85.17" width="210" height="480.88" as="geometry" />
        </mxCell>
        <mxCell id="dwJ0m4_YwyUEJ83W4lfC-71" value="" style="verticalLabelPosition=bottom;verticalAlign=top;html=1;shape=mxgraph.basic.patternFillRect;fillStyle=vert;step=5;fillStrokeWidth=0.2;fillStrokeColor=#dddddd;fillColor=#ffe6cc;strokeColor=#d79b00;rotation=-30;textOpacity=20;labelBackgroundColor=none;" parent="1" vertex="1">
          <mxGeometry x="2450" y="287.5" width="170" height="97.5" as="geometry" />
        </mxCell>
        <mxCell id="dwJ0m4_YwyUEJ83W4lfC-74" value="" style="verticalLabelPosition=bottom;verticalAlign=top;html=1;shape=mxgraph.basic.patternFillRect;fillStyle=vert;step=5;fillStrokeWidth=0.2;fillStrokeColor=#dddddd;fillColor=#ffe6cc;strokeColor=#d79b00;opacity=50;dashed=1;dashPattern=8 8;" parent="1" vertex="1">
          <mxGeometry x="2450" y="262.5" width="170" height="97.5" as="geometry" />
        </mxCell>
        <mxCell id="dwJ0m4_YwyUEJ83W4lfC-75" value="防止角度变换导致位置突变，实际位置为实线，控制器认为的位置为虚线" style="text;html=1;align=center;verticalAlign=middle;whiteSpace=wrap;rounded=0;strokeColor=default;dashed=1;dashPattern=12 12;fontSize=24;" parent="1" vertex="1">
          <mxGeometry x="2140" y="440" width="380" height="85" as="geometry" />
        </mxCell>
        <mxCell id="dwJ0m4_YwyUEJ83W4lfC-77" value="为防止位置突变，可根据当前编码器反馈是否超过一个定子的长度来判断是否需要利用下游定子来计算动子坐标，实现位置连续" style="text;html=1;align=center;verticalAlign=middle;whiteSpace=wrap;rounded=0;strokeColor=default;dashed=1;dashPattern=12 12;fontSize=24;rotation=-30;" parent="1" vertex="1">
          <mxGeometry x="2640" y="240" width="470" height="165" as="geometry" />
        </mxCell>
        <mxCell id="dwJ0m4_YwyUEJ83W4lfC-81" value="" style="edgeStyle=orthogonalEdgeStyle;rounded=0;orthogonalLoop=1;jettySize=auto;html=1;" parent="1" source="dwJ0m4_YwyUEJ83W4lfC-78" target="dwJ0m4_YwyUEJ83W4lfC-80" edge="1">
          <mxGeometry relative="1" as="geometry" />
        </mxCell>
        <mxCell id="dwJ0m4_YwyUEJ83W4lfC-78" value="&lt;div style=&quot;font-size: 24px;&quot;&gt;位置跟踪&lt;/div&gt;&lt;div style=&quot;font-size: 24px;&quot;&gt;&lt;br style=&quot;font-size: 24px;&quot;&gt;&lt;/div&gt;" style="rounded=1;whiteSpace=wrap;html=1;absoluteArcSize=1;arcSize=14;strokeWidth=2;fontSize=24;" parent="1" vertex="1">
          <mxGeometry x="2390" y="790" width="320" height="130" as="geometry" />
        </mxCell>
        <mxCell id="dwJ0m4_YwyUEJ83W4lfC-83" value="" style="edgeStyle=orthogonalEdgeStyle;rounded=0;orthogonalLoop=1;jettySize=auto;html=1;" parent="1" source="dwJ0m4_YwyUEJ83W4lfC-80" target="dwJ0m4_YwyUEJ83W4lfC-82" edge="1">
          <mxGeometry relative="1" as="geometry" />
        </mxCell>
        <mxCell id="dwJ0m4_YwyUEJ83W4lfC-84" value="反馈大于定子反馈" style="edgeLabel;html=1;align=center;verticalAlign=middle;resizable=0;points=[];fontSize=24;" parent="dwJ0m4_YwyUEJ83W4lfC-83" vertex="1" connectable="0">
          <mxGeometry x="-0.168" y="-7" relative="1" as="geometry">
            <mxPoint y="-1" as="offset" />
          </mxGeometry>
        </mxCell>
        <mxCell id="dwJ0m4_YwyUEJ83W4lfC-90" style="edgeStyle=orthogonalEdgeStyle;rounded=0;orthogonalLoop=1;jettySize=auto;html=1;entryX=0.5;entryY=0;entryDx=0;entryDy=0;" parent="1" source="dwJ0m4_YwyUEJ83W4lfC-80" target="dwJ0m4_YwyUEJ83W4lfC-88" edge="1">
          <mxGeometry relative="1" as="geometry" />
        </mxCell>
        <mxCell id="dwJ0m4_YwyUEJ83W4lfC-80" value="判断当前编码器反馈是否大于定子长度" style="rounded=1;whiteSpace=wrap;html=1;fontSize=24;arcSize=14;strokeWidth=2;" parent="1" vertex="1">
          <mxGeometry x="2385" y="1050" width="330" height="175" as="geometry" />
        </mxCell>
        <mxCell id="dwJ0m4_YwyUEJ83W4lfC-86" value="" style="edgeStyle=orthogonalEdgeStyle;rounded=0;orthogonalLoop=1;jettySize=auto;html=1;fontSize=24;" parent="1" source="dwJ0m4_YwyUEJ83W4lfC-82" target="dwJ0m4_YwyUEJ83W4lfC-85" edge="1">
          <mxGeometry relative="1" as="geometry" />
        </mxCell>
        <mxCell id="dwJ0m4_YwyUEJ83W4lfC-87" value="&lt;font style=&quot;font-size: 24px;&quot;&gt;如果是环&lt;/font&gt;" style="edgeLabel;html=1;align=center;verticalAlign=middle;resizable=0;points=[];" parent="dwJ0m4_YwyUEJ83W4lfC-86" vertex="1" connectable="0">
          <mxGeometry x="0.0626" y="2" relative="1" as="geometry">
            <mxPoint y="-1" as="offset" />
          </mxGeometry>
        </mxCell>
        <mxCell id="dwJ0m4_YwyUEJ83W4lfC-89" value="" style="edgeStyle=orthogonalEdgeStyle;rounded=0;orthogonalLoop=1;jettySize=auto;html=1;" parent="1" source="dwJ0m4_YwyUEJ83W4lfC-82" target="dwJ0m4_YwyUEJ83W4lfC-88" edge="1">
          <mxGeometry relative="1" as="geometry" />
        </mxCell>
        <mxCell id="dwJ0m4_YwyUEJ83W4lfC-82" value="判断当前定子是否是环或者下游定子是否是环" style="rounded=1;whiteSpace=wrap;html=1;fontSize=24;arcSize=14;strokeWidth=2;" parent="1" vertex="1">
          <mxGeometry x="2370" y="1350" width="360" height="227.5" as="geometry" />
        </mxCell>
        <mxCell id="dwJ0m4_YwyUEJ83W4lfC-85" value="通过下游定子计算全局位置" style="rounded=1;whiteSpace=wrap;html=1;fontSize=24;arcSize=14;strokeWidth=2;" parent="1" vertex="1">
          <mxGeometry x="2350" y="1741.25" width="400" height="268.75" as="geometry" />
        </mxCell>
        <mxCell id="dwJ0m4_YwyUEJ83W4lfC-88" value="&lt;div&gt;通过当前位置计算绝对位置&lt;/div&gt;&lt;div&gt;&lt;br&gt;&lt;/div&gt;" style="whiteSpace=wrap;html=1;fontSize=24;rounded=1;arcSize=14;strokeWidth=2;" parent="1" vertex="1">
          <mxGeometry x="3100" y="1358.75" width="220" height="210" as="geometry" />
        </mxCell>
        <mxCell id="doBvGv7torylR3jZh_vd-8" value="" style="edgeStyle=orthogonalEdgeStyle;rounded=0;orthogonalLoop=1;jettySize=auto;html=1;" parent="1" source="doBvGv7torylR3jZh_vd-1" target="doBvGv7torylR3jZh_vd-7" edge="1">
          <mxGeometry relative="1" as="geometry" />
        </mxCell>
        <mxCell id="doBvGv7torylR3jZh_vd-9" value="&lt;font style=&quot;font-size: 48px;&quot;&gt;X=X0，Y=Y0&lt;/font&gt;" style="edgeLabel;html=1;align=center;verticalAlign=middle;resizable=0;points=[];" parent="doBvGv7torylR3jZh_vd-8" vertex="1" connectable="0">
          <mxGeometry x="-0.0653" y="5" relative="1" as="geometry">
            <mxPoint as="offset" />
          </mxGeometry>
        </mxCell>
        <mxCell id="doBvGv7torylR3jZh_vd-1" value="" style="rounded=1;whiteSpace=wrap;html=1;absoluteArcSize=1;arcSize=14;strokeWidth=2;" parent="1" vertex="1">
          <mxGeometry x="4012.5" y="742.88" width="590" height="224.12" as="geometry" />
        </mxCell>
        <mxCell id="doBvGv7torylR3jZh_vd-2" value="&lt;font style=&quot;font-size: 36px;&quot;&gt;哈希表定位&lt;/font&gt;" style="text;html=1;align=center;verticalAlign=middle;resizable=0;points=[];autosize=1;strokeColor=none;fillColor=none;" parent="1" vertex="1">
          <mxGeometry x="4192.5" y="660" width="200" height="60" as="geometry" />
        </mxCell>
        <mxCell id="doBvGv7torylR3jZh_vd-4" value="&lt;font style=&quot;font-size: 48px;&quot;&gt;下发绝对位置X0,Y0&lt;/font&gt;" style="text;html=1;align=center;verticalAlign=middle;resizable=0;points=[];autosize=1;strokeColor=none;fillColor=none;fontSize=36;" parent="1" vertex="1">
          <mxGeometry x="4087.5" y="827" width="440" height="70" as="geometry" />
        </mxCell>
        <mxCell id="doBvGv7torylR3jZh_vd-12" style="edgeStyle=orthogonalEdgeStyle;rounded=0;orthogonalLoop=1;jettySize=auto;html=1;entryX=0.5;entryY=0;entryDx=0;entryDy=0;" parent="1" source="doBvGv7torylR3jZh_vd-7" target="doBvGv7torylR3jZh_vd-11" edge="1">
          <mxGeometry relative="1" as="geometry" />
        </mxCell>
        <mxCell id="doBvGv7torylR3jZh_vd-7" value="&lt;font style=&quot;font-size: 48px;&quot;&gt;通过X，Y获取存取的hash值&lt;/font&gt;" style="whiteSpace=wrap;html=1;rounded=1;arcSize=14;strokeWidth=2;" parent="1" vertex="1">
          <mxGeometry x="3960" y="1147" width="692.5" height="320" as="geometry" />
        </mxCell>
        <mxCell id="doBvGv7torylR3jZh_vd-16" value="" style="edgeStyle=orthogonalEdgeStyle;rounded=0;orthogonalLoop=1;jettySize=auto;html=1;" parent="1" source="doBvGv7torylR3jZh_vd-11" target="doBvGv7torylR3jZh_vd-15" edge="1">
          <mxGeometry relative="1" as="geometry" />
        </mxCell>
        <mxCell id="doBvGv7torylR3jZh_vd-19" value="" style="edgeStyle=orthogonalEdgeStyle;rounded=0;orthogonalLoop=1;jettySize=auto;html=1;" parent="1" source="doBvGv7torylR3jZh_vd-11" target="doBvGv7torylR3jZh_vd-18" edge="1">
          <mxGeometry relative="1" as="geometry" />
        </mxCell>
        <mxCell id="doBvGv7torylR3jZh_vd-11" value="通过hash值索引定子" style="whiteSpace=wrap;html=1;rounded=1;arcSize=14;strokeWidth=2;fontSize=48;" parent="1" vertex="1">
          <mxGeometry x="3961.25" y="1647" width="692.5" height="320" as="geometry" />
        </mxCell>
        <mxCell id="doBvGv7torylR3jZh_vd-17" style="edgeStyle=orthogonalEdgeStyle;rounded=0;orthogonalLoop=1;jettySize=auto;html=1;entryX=1;entryY=0.5;entryDx=0;entryDy=0;exitX=0.5;exitY=0;exitDx=0;exitDy=0;" parent="1" source="doBvGv7torylR3jZh_vd-15" target="doBvGv7torylR3jZh_vd-7" edge="1">
          <mxGeometry relative="1" as="geometry">
            <mxPoint x="5002.5" y="1187" as="targetPoint" />
          </mxGeometry>
        </mxCell>
        <mxCell id="doBvGv7torylR3jZh_vd-15" value="遍历九宫格，生产X，Y" style="whiteSpace=wrap;html=1;fontSize=48;rounded=1;arcSize=14;strokeWidth=2;" parent="1" vertex="1">
          <mxGeometry x="4972.5" y="1527" width="350" height="560" as="geometry" />
        </mxCell>
        <mxCell id="doBvGv7torylR3jZh_vd-20" style="edgeStyle=orthogonalEdgeStyle;rounded=0;orthogonalLoop=1;jettySize=auto;html=1;entryX=0.5;entryY=1;entryDx=0;entryDy=0;" parent="1" source="doBvGv7torylR3jZh_vd-18" target="doBvGv7torylR3jZh_vd-15" edge="1">
          <mxGeometry relative="1" as="geometry" />
        </mxCell>
        <mxCell id="doBvGv7torylR3jZh_vd-22" value="" style="edgeStyle=orthogonalEdgeStyle;rounded=0;orthogonalLoop=1;jettySize=auto;html=1;" parent="1" source="doBvGv7torylR3jZh_vd-18" target="doBvGv7torylR3jZh_vd-21" edge="1">
          <mxGeometry relative="1" as="geometry" />
        </mxCell>
        <mxCell id="doBvGv7torylR3jZh_vd-18" value="绝对坐标不在该定子上" style="whiteSpace=wrap;html=1;fontSize=48;rounded=1;arcSize=14;strokeWidth=2;" parent="1" vertex="1">
          <mxGeometry x="4013.75" y="2217" width="585" height="450" as="geometry" />
        </mxCell>
        <mxCell id="doBvGv7torylR3jZh_vd-21" value="索引到该定子" style="whiteSpace=wrap;html=1;fontSize=48;rounded=1;arcSize=14;strokeWidth=2;" parent="1" vertex="1">
          <mxGeometry x="4081.25" y="2927" width="446.25" height="395" as="geometry" />
        </mxCell>
        <mxCell id="doBvGv7torylR3jZh_vd-23" value="" style="shape=stencil(fZbdcgIhDIWfZm8zQAg/17Z9j85U606tdqz9e/tmZ0c0uJ47xP0I5JwEBl59bp8/1kNwn6fj4W39M76ctgM/DCGM++36OJ50NPDjwKvN4bh+PR6+9i/z74/n6ctp9H74nlb4nbmSKZeJCu5vngmZ6jzzNAO7cX8FVKEsBuBKrgKg9oAE8gkCbLeUhEoEQKSUDZDLeWYRKIl8MEDRmHwfyBrBG6Amyu4+kDxxMoB3jhwgYu7TVAsVkFcWCs4CTBEoF4RctKeOxHIf8IXYpikHikAIf+MNUW94AGSSaoAoFIE3AlOyeWU+p2E5S9yfQZcQILVuQOwZdJNoS9Ls3wA5u2XZTIHECqeJ9kDpSaauRiNVcAY1QhdBzeLBli5WazpkSsBLV25uRaqWRyFawTQzRRIQYirJzq5atkBqLfouwqUxLBepthWb10vrWZY6UOAeyKCCtDV625mm9gmUC4Wc3VLJMMIE1BsA2FW9JraVlQB7n3c9oMKhCLEvIM1zBPZ25/umNQ1tVEC2G+fFCC8g398O2hNQuQlVu752DBfA+q0ptnqO5JFmeuIuo9DY7KjY71UxdJV4EntifPWorW++R/dC4t7V3DlIB5cHx2bc7eb3yvX//QNFp+bHDT/+Aw==);lineShape=1;strokeColor=default;" parent="1" vertex="1">
          <mxGeometry x="3037.1699021061895" y="482.18828114629787" width="11.681349430288037" height="11.66309054089453" as="geometry" />
        </mxCell>
        <mxCell id="doBvGv7torylR3jZh_vd-24" value="" style="shape=stencil(fZbdcgIhDIWfZm8zQAg/17Z9j85U606tdqz9e/tmZ0c0uJ47xP0I5JwEBl59bp8/1kNwn6fj4W39M76ctgM/DCGM++36OJ50NPDjwKvN4bh+PR6+9i/z74/n6ctp9H74nlb4nbmSKZeJCu5vngmZ6jzzNAO7cX8FVKEsBuBKrgKg9oAE8gkCbLeUhEoEQKSUDZDLeWYRKIl8MEDRmHwfyBrBG6Amyu4+kDxxMoB3jhwgYu7TVAsVkFcWCs4CTBEoF4RctKeOxHIf8IXYpikHikAIf+MNUW94AGSSaoAoFIE3AlOyeWU+p2E5S9yfQZcQILVuQOwZdJNoS9Ls3wA5u2XZTIHECqeJ9kDpSaauRiNVcAY1QhdBzeLBli5WazpkSsBLV25uRaqWRyFawTQzRRIQYirJzq5atkBqLfouwqUxLBepthWb10vrWZY6UOAeyKCCtDV625mm9gmUC4Wc3VLJMMIE1BsA2FW9JraVlQB7n3c9oMKhCLEvIM1zBPZ25/umNQ1tVEC2G+fFCC8g398O2hNQuQlVu752DBfA+q0ptnqO5JFmeuIuo9DY7KjY71UxdJV4EntifPWorW++R/dC4t7V3DlIB5cHx2bc7eb3yvX//QNFp+bHDT/+Aw==);lineShape=1;strokeColor=default;" parent="1" vertex="1">
          <mxGeometry x="2717.1699021061895" y="647.1882811462979" width="11.681349430288037" height="11.66309054089453" as="geometry" />
        </mxCell>
        <mxCell id="doBvGv7torylR3jZh_vd-27" value="" style="edgeStyle=orthogonalEdgeStyle;rounded=0;orthogonalLoop=1;jettySize=auto;html=1;" parent="1" source="doBvGv7torylR3jZh_vd-25" target="doBvGv7torylR3jZh_vd-26" edge="1">
          <mxGeometry relative="1" as="geometry" />
        </mxCell>
        <mxCell id="doBvGv7torylR3jZh_vd-25" value="命令层" style="whiteSpace=wrap;html=1;aspect=fixed;fontSize=36;" parent="1" vertex="1">
          <mxGeometry x="880" y="1870" width="320" height="320" as="geometry" />
        </mxCell>
        <mxCell id="doBvGv7torylR3jZh_vd-29" value="" style="edgeStyle=orthogonalEdgeStyle;rounded=0;orthogonalLoop=1;jettySize=auto;html=1;" parent="1" source="doBvGv7torylR3jZh_vd-26" target="doBvGv7torylR3jZh_vd-28" edge="1">
          <mxGeometry relative="1" as="geometry" />
        </mxCell>
        <mxCell id="doBvGv7torylR3jZh_vd-26" value="路径规划层" style="whiteSpace=wrap;html=1;aspect=fixed;fontSize=36;" parent="1" vertex="1">
          <mxGeometry x="880" y="2270" width="320" height="320" as="geometry" />
        </mxCell>
        <mxCell id="doBvGv7torylR3jZh_vd-28" value="执行层" style="whiteSpace=wrap;html=1;aspect=fixed;fontSize=36;" parent="1" vertex="1">
          <mxGeometry x="880" y="2670" width="320" height="320" as="geometry" />
        </mxCell>
      </root>
    </mxGraphModel>
  </diagram>
</mxfile>
